<svg width="30" height="30" viewBox="0 0 30 30" fill="none" xmlns="http://www.w3.org/2000/svg">
<g clip-path="url(#clip0_1_251)">
<path d="M15 30C23.2843 30 30 23.2843 30 15C30 6.71573 23.2843 0 15 0C6.71573 0 0 6.71573 0 15C0 23.2843 6.71573 30 15 30Z" fill="#FFA400"/>
<path d="M11.167 21.7665L18.8799 29.4794C25.2679 27.776 29.9998 21.9558 29.9998 14.9999C29.9998 14.858 29.9998 14.716 29.9998 14.5741L23 9L11.167 21.7665Z" fill="#AD750F"/>
<path d="M8.56299 5.05054C8.86299 6.63913 8.24424 7.60007 7.03486 8.15835C6.81924 8.54132 6.64111 8.92194 6.50049 9.30163C7.21767 8.50382 8.06142 8.11522 9.21924 8.68663C8.5583 9.98132 7.55049 10.2063 6.33642 9.78444C6.0458 10.7688 5.97549 11.7344 6.04111 12.7094C6.04111 12.7188 6.04111 12.7282 6.0458 12.7376C5.99892 12.7657 5.95205 12.7891 5.90986 12.8173C5.68018 12.9532 5.45518 13.0938 5.23955 13.2344C5.2208 13.0798 5.20674 12.9204 5.19736 12.7657C5.14111 11.9407 5.17861 11.1063 5.35205 10.2579C4.0958 10.4969 3.33643 9.85476 2.87705 8.68194C4.01143 8.56007 4.98174 8.73913 5.46924 9.75632C5.59111 9.31569 5.75049 8.87038 5.95205 8.42226C4.84111 7.67929 4.18486 6.73147 4.7333 5.25257C5.78799 5.65241 6.30361 6.28991 6.43486 7.10272C6.65049 6.07804 7.23642 5.31257 8.56299 5.05054ZM17.0614 6.93585C17.4036 7.88554 17.7317 9.15632 17.938 10.4126C18.088 11.3454 18.1864 12.2735 18.2052 13.0798C16.7802 14.2938 15.238 15.1704 13.527 15.2501C15.0833 12.7891 16.4802 9.62507 17.0614 6.93585ZM23.337 8.79069C23.1927 12.3251 21.8356 17.1673 18.1489 19.7219L17.8911 19.9001L17.9849 20.1954C18.1349 20.6688 18.3505 21.086 18.688 21.4048C19.0302 21.7235 19.4802 21.9298 20.0333 22.0282C21.088 22.2157 22.5711 22.0657 24.8094 21.6673C25.2594 22.7969 25.198 24.0391 24.7892 25.0469C24.3805 26.0454 23.6506 26.7626 22.8158 26.9501C21.651 25.4594 19.8974 23.6501 17.4927 23.7579C15.0552 23.8657 12.2661 23.1907 10.6067 21.5266C10.0208 20.9454 9.51924 19.5438 9.22861 18.311C8.93799 17.0782 8.8208 16.0141 8.8208 16.0141L8.79268 15.7282L8.51143 15.6532C7.90511 15.496 7.22484 15.3472 6.48369 15.1052C5.76155 14.8693 5.6892 13.9338 6.34111 13.5438C7.18017 13.0469 8.10361 12.6157 8.5583 12.5641C9.33642 12.4844 9.77705 12.6251 10.0817 12.8501C10.3817 13.0751 10.5786 13.4219 10.7521 13.8391C10.9208 14.2563 11.052 14.7298 11.2864 15.1563C11.5255 15.5876 11.9427 15.9907 12.5427 16.0563C15.1677 16.361 17.4083 14.9829 19.288 13.2391C20.8349 11.8048 22.1745 10.1079 23.337 8.79069ZM5.7083 15.7282C6.04111 15.8501 6.35986 15.9579 6.66455 16.0469C6.74892 16.3704 6.83799 16.6938 6.92705 17.0173L6.11143 17.2423C5.9708 16.7407 5.83486 16.2344 5.7083 15.7282Z" fill="white"/>
</g>
<defs>
<clipPath id="clip0_1_251">
<rect width="30" height="30" fill="white"/>
</clipPath>
</defs>
</svg>
