<svg width="30" height="30" viewBox="0 0 30 30" fill="none" xmlns="http://www.w3.org/2000/svg">
<g clip-path="url(#clip0_1_139)">
<path d="M15 30C23.2843 30 30 23.2843 30 15C30 6.71573 23.2843 0 15 0C6.71573 0 0 6.71573 0 15C0 23.2843 6.71573 30 15 30Z" fill="#FFA400"/>
<path d="M11.167 21.7665L18.8799 29.4794C25.2679 27.776 29.9998 21.9558 29.9998 14.9999C29.9998 14.858 29.9998 14.716 29.9998 14.5741L23.943 8.99048L11.167 21.7665Z" fill="#AD750F"/>
<path d="M22.4556 14.0253H7.54409C7.31514 14.0253 7.12988 14.2108 7.12988 14.4395V17.4043C7.12988 19.9226 10.5868 21.8953 14.9998 21.8953C19.4129 21.8953 22.8698 19.9225 22.8698 17.4043V14.4395C22.8698 14.2108 22.6845 14.0253 22.4556 14.0253Z" fill="#E0E0E0"/>
<path d="M15.0128 14.0253H7.54409C7.31514 14.0253 7.12988 14.2108 7.12988 14.4395V17.4043C7.12988 19.9226 10.5868 21.8953 14.9998 21.8953C15.0042 21.8953 15.0084 21.8949 15.0128 21.8949V14.0253Z" fill="#F4F4F4"/>
<path d="M26.996 9.60335L16.4665 5.0903C15.5345 4.69106 14.4642 4.69127 13.5315 5.09134L3.0044 9.60294C2.3847 9.86849 2 10.4522 2 11.1261C2 11.7998 2.3847 12.3828 3.00399 12.6482L13.5331 17.1612C13.9987 17.3606 14.4986 17.4603 14.999 17.4603C15.5002 17.4603 16.0013 17.3604 16.4681 17.1601L26.9952 12.6486C27.6149 12.3832 27.9999 11.7995 27.9999 11.1256C28 10.452 27.6153 9.8687 26.996 9.60335Z" fill="white"/>
<path d="M4.64461 19.8242C4.41566 19.8242 4.23041 19.6388 4.23041 19.41V13.1312C4.23041 12.727 4.51921 12.3838 4.91727 12.3149L13.2722 10.8617C13.4975 10.8229 13.7119 10.9736 13.7511 11.1989C13.7904 11.4242 13.6395 11.6388 13.4137 11.678L5.05882 13.1312V19.41C5.05882 19.6388 4.87357 19.8242 4.64461 19.8242Z" fill="white"/>
<path d="M4.64464 20.6526C5.10216 20.6526 5.47305 20.2818 5.47305 19.8242C5.47305 19.3667 5.10216 18.9958 4.64464 18.9958C4.18712 18.9958 3.81622 19.3667 3.81622 19.8242C3.81622 20.2818 4.18712 20.6526 4.64464 20.6526Z" fill="#FF9600"/>
<path d="M13.343 10.7117V11.5401C13.343 11.9976 14.0848 12.3685 14.9998 12.3685C15.9148 12.3685 16.6566 11.9976 16.6566 11.5401V10.7117H13.343Z" fill="#FF9600"/>
<path d="M14.9998 11.5401C15.9148 11.5401 16.6566 11.1692 16.6566 10.7117C16.6566 10.2541 15.9148 9.88326 14.9998 9.88326C14.0847 9.88326 13.343 10.2541 13.343 10.7117C13.343 11.1692 14.0847 11.5401 14.9998 11.5401Z" fill="#FFD200"/>
<path d="M4.2492 18.5433L4.00144 20.7027C3.98311 20.8624 4.14185 21.0001 4.34426 21.0001H5.65574C5.85815 21.0001 6.01689 20.8624 5.99856 20.7027L5.7508 18.5433C5.71551 18.2356 5.38991 18.0001 5.00002 18.0001C4.61013 18.0001 4.28453 18.2356 4.2492 18.5433Z" fill="#FFD200"/>
</g>
<defs>
<clipPath id="clip0_1_139">
<rect width="30" height="30" fill="white"/>
</clipPath>
</defs>
</svg>
