<svg width="30" height="30" viewBox="0 0 30 30" fill="none" xmlns="http://www.w3.org/2000/svg">
<g clip-path="url(#clip0_1_201)">
<path d="M15 30C23.2843 30 30 23.2843 30 15C30 6.71573 23.2843 0 15 0C6.71573 0 0 6.71573 0 15C0 23.2843 6.71573 30 15 30Z" fill="#FFA400"/>
<path d="M5 25.5001L18.8799 29.4794C27.5 27.0001 29.5 19.7059 29.5 18.9999L25.5 17.0001L5 25.5001Z" fill="#AD750F"/>
<g clip-path="url(#clip1_1_201)">
<path d="M8.93066 4.1897H10.4479C12.9617 4.1897 14.9996 6.22759 14.9996 8.74142H13.4824C10.9686 8.74142 8.93066 6.70353 8.93066 4.1897Z" fill="#EBEBEB"/>
<path d="M16.5172 8.74138H15C15 6.22755 17.0379 4.18966 19.5517 4.18966H21.069C21.069 6.70349 19.0311 8.74138 16.5172 8.74138Z" fill="white"/>
<path d="M15.0004 13.2931C14.7909 13.2931 14.6211 13.1233 14.6211 12.9138V8.74137C14.6211 8.5319 14.7909 8.36206 15.0004 8.36206C15.2099 8.36206 15.3797 8.5319 15.3797 8.74137V12.9138C15.3797 13.1233 15.2099 13.2931 15.0004 13.2931Z" fill="#F1F1F1"/>
<path d="M22.5865 19.7414H7.41406L13.081 13.7411C13.5797 13.2131 14.2739 12.9139 15.0003 12.9138C15.7266 12.9139 16.4208 13.2131 16.9196 13.7411L22.5865 19.7414Z" fill="#E0E0E0"/>
<path d="M18.1103 15C16.4269 16.8632 14.4719 18.4617 12.3114 19.7414H22.5862L18.1103 15Z" fill="#D5D5D5"/>
<path d="M24.8511 15.9483C24.6115 15.9482 24.378 16.023 24.1831 16.1622L21.2108 18.2863L19.1724 19.7414H11.2069C10.7879 19.7414 10.4483 19.4018 10.4483 18.9828C10.4483 18.5638 10.7879 18.2241 11.2069 18.2241H16.1379C16.7664 18.2241 17.2759 17.7147 17.2759 17.0862C17.2759 16.4577 16.7664 15.9483 16.1379 15.9483H10.7574C9.19797 15.9483 7.79747 16.9028 7.22717 18.3542L4.5 25.5L10.8276 25.8103L11.5862 23.5345L19.1724 22.7759L25.5236 18.1889C25.8228 17.9728 26 17.6263 26 17.2573V17.0972C26 16.4627 25.4856 15.9483 24.8511 15.9483Z" fill="white"/>
</g>
</g>
<defs>
<clipPath id="clip0_1_201">
<rect width="30" height="30" fill="white"/>
</clipPath>
<clipPath id="clip1_1_201">
<rect width="22" height="22" fill="white" transform="translate(4 4)"/>
</clipPath>
</defs>
</svg>
