<svg width="30" height="30" viewBox="0 0 30 30" fill="none" xmlns="http://www.w3.org/2000/svg">
<g clip-path="url(#clip0_1_213)">
<path d="M15 30C23.2843 30 30 23.2843 30 15C30 6.71573 23.2843 0 15 0C6.71573 0 0 6.71573 0 15C0 23.2843 6.71573 30 15 30Z" fill="#FFA400"/>
<path d="M6 14.9999L16.0456 29.9641C23.8423 29.4274 30.0004 22.9328 30.0004 14.9999C30.0004 14.2066 29.9388 13.4277 29.8202 12.6677L21 7.5L16.5548 10.2952L13 11L6 14.9999Z" fill="#AD750F"/>
<path d="M19.7285 16.2976L18.0826 10.1396L14.6497 9.86513C14.6497 9.86513 13.5009 7.72939 11.3944 7.1661C8.87559 6.4926 6.73961 7.98753 6.03742 9.48959C2.55323 16.9427 14.6497 23.0786 14.6497 23.0786L19.7285 16.2976Z" fill="white"/>
<path d="M23.2615 9.48959C22.5594 7.98753 20.4234 6.4926 17.9046 7.1661C15.798 7.72939 14.6493 9.86513 14.6493 9.86513V23.0786C14.6493 23.0786 26.7457 16.9427 23.2615 9.48959Z" fill="white"/>
<path d="M13.3133 19.1329L11.0192 13.9868L10.2379 15.5458H4.02429V13.8301H9.17862L11.1101 9.97668L13.5958 15.5527L14.6494 13.9331L15.1674 14.2782L15.377 14.8721L14.6494 17.0791L13.3133 19.1329Z" fill="#FFDE55"/>
<path d="M25.2735 15.5201V13.8044H14.7321L14.6483 13.9332V17.0792L15.6626 15.5201H25.2735Z" fill="#F7B81C"/>
</g>
<defs>
<clipPath id="clip0_1_213">
<rect width="30" height="30" fill="white"/>
</clipPath>
</defs>
</svg>
