<svg width="30" height="30" viewBox="0 0 30 30" fill="none" xmlns="http://www.w3.org/2000/svg">
<g clip-path="url(#clip0_1_177)">
<path d="M15 30C23.2843 30 30 23.2843 30 15C30 6.71573 23.2843 0 15 0C6.71573 0 0 6.71573 0 15C0 23.2843 6.71573 30 15 30Z" fill="#FFA400"/>
<path d="M13.5 23.5L18.8799 29.4794C25.2679 27.776 29.9998 21.9558 29.9998 14.9999C29.9998 14.858 29.9998 14.716 29.9998 14.5741L18.8799 8L13.5 23.5Z" fill="#AD750F"/>
<path d="M16.375 10.517L12.8244 9.53465L11.8516 9.08966C11.5402 8.95248 11.2933 8.701 11.1619 8.38712C10.9012 7.77653 10.8379 7.09972 10.9809 6.45138C11.0942 5.93743 11.3329 5.45951 11.6758 5.06027C12.0187 4.66102 12.4552 4.35287 12.9461 4.16329L13.1703 4.07671C13.6909 3.87544 14.2501 3.79411 14.8065 3.83875L14.8437 3.84172C15.4914 3.89309 16.1158 4.10622 16.6597 4.46158C17.2036 4.81694 17.6496 5.30315 17.9567 5.87564C18.2797 6.47802 18.6228 7.11744 18.8884 7.61158C19.1946 8.18161 19.6349 8.66858 20.1712 9.03049L20.5854 9.30979C21.1268 9.67517 21.5703 10.1679 21.8769 10.7447C22.1835 11.3214 22.3439 11.9647 22.3439 12.6179C22.3438 13.3389 22.1485 14.0464 21.7786 14.6652L21.4982 15.1344L16.375 10.517Z" fill="#A6A6A6"/>
<path d="M17.4043 11.467L17.696 11.141C17.5193 11.0316 17.3618 10.8938 17.23 10.7332C17.0485 10.5119 16.9197 10.2523 16.8533 9.97392L14.4435 10.7001L15.0111 11.7561C15.3809 11.9951 15.8228 12.0971 16.26 12.0443C16.6971 11.9915 17.102 11.7872 17.4043 11.467Z" fill="#E1E1E1"/>
<path d="M17.0092 10.3949L16.9405 10.434L16.384 10.7722C15.8793 11.0793 15.277 11.1837 14.6983 11.0644C14.676 11.0596 14.6537 11.0549 14.6313 11.0498L14.4435 10.7L16.8532 9.97383C16.8863 10.1117 16.9347 10.2455 16.9976 10.3726C17.0015 10.3799 17.0049 10.3876 17.0092 10.3949Z" fill="#E1E1E1"/>
<path d="M21.3888 13.2098C21.2193 12.8308 20.9649 12.4958 20.6452 12.2307C20.3256 11.9657 19.9493 11.7776 19.5454 11.6812L18.2516 11.3723C18.0553 11.3254 17.8678 11.2473 17.6962 11.141L17.4045 11.467C17.1022 11.7873 16.6973 11.9915 16.2601 12.0443C15.8229 12.0971 15.381 11.9952 15.0111 11.7561L12.586 12.4059C12.2807 12.4877 11.996 12.6329 11.7506 12.8321C11.5052 13.0312 11.3044 13.2798 11.1614 13.5617L11.0813 13.7198L9.84375 17.9072L13.2284 21.6045L13.0372 23.9258L20.5721 23.9687L20.3417 18.7609L21.4981 15.1346C21.699 14.5013 21.6601 13.8163 21.3888 13.2098Z" fill="white"/>
<path d="M17.8053 18.0216C17.693 17.4868 17.4239 16.9975 17.0322 16.6165L16.9588 16.5452C16.6907 16.2843 16.3722 16.0809 16.0226 15.9474L14.4707 15.3552L13.0856 16.4574L12.6826 17.7608L17.2964 19.5512L17.8053 18.0216Z" fill="#E6E5E0"/>
<path d="M16.375 16.1119V19.1936L15 18.66V15.5572L16.0227 15.9473C16.1439 15.9938 16.2616 16.0488 16.375 16.1119Z" fill="#E6E5E0"/>
<path d="M9.84376 17.9072L9.1954 20.2982C9.15682 20.4973 9.16211 20.7023 9.21089 20.8991C9.25968 21.0959 9.35079 21.2797 9.47788 21.4377C9.62882 21.6253 9.82575 21.7706 10.0495 21.8595C10.2732 21.9483 10.5162 21.9778 10.7547 21.9449L15.1343 21.3541L9.84376 17.9072Z" fill="#E1E1E1"/>
<path d="M15.134 21.3541L14.5699 21.4302L10.8608 19.8102C10.3646 19.5933 9.94927 19.2258 9.67358 18.7596L9.6319 18.6888L9.84373 17.9071L15.134 21.3541Z" fill="#E1E1E1"/>
<path d="M17.0092 10.3949L16.9405 10.434L16.384 10.7722C15.8793 11.0793 15.277 11.1837 14.6983 11.0644C14.676 11.0596 14.6537 11.0549 14.6313 11.0498L14.4435 10.7L16.8532 9.97383C16.8863 10.1117 16.9347 10.2455 16.9976 10.3726C17.0015 10.3799 17.0049 10.3876 17.0092 10.3949Z" fill="#E6AF89"/>
<path d="M12.2397 13.7746L13.2857 13.9723C13.511 14.0275 13.7195 14.1368 13.8931 14.2907C14.0668 14.4447 14.2002 14.6386 14.2821 14.8557L14.4703 15.3553L14.4448 15.3799C13.7285 16.0696 13.1327 16.8744 12.6822 17.7609L11.7002 15.1347L12.2397 13.7746Z" fill="#E1E1E1"/>
<path d="M16.375 16.1119V19.1936L15 18.66V15.5572L16.0227 15.9473C16.1439 15.9938 16.2616 16.0488 16.375 16.1119Z" fill="#D6D5D0"/>
<path d="M6.85832 9.91737L6.87315 9.90749C7.03231 9.80135 7.22333 9.75364 7.4137 9.77249C7.60408 9.79134 7.78203 9.87558 7.91729 10.0109L8.125 10.2188L8.30345 10.0149C8.44156 9.85707 8.63443 9.7576 8.84308 9.73657C9.05172 9.71554 9.26057 9.77453 9.42738 9.9016C9.55682 10.0002 9.66174 10.1273 9.73396 10.2731C9.80618 10.4189 9.84375 10.5794 9.84375 10.7422C9.84374 10.9006 9.80809 11.057 9.73944 11.1998C9.6708 11.3426 9.57092 11.4682 9.44719 11.5672L8.125 12.625L6.78725 11.5548C6.66837 11.4597 6.57241 11.3391 6.50646 11.2019C6.44051 11.0646 6.40626 10.9143 6.40625 10.7621C6.40625 10.595 6.44751 10.4304 6.52637 10.283C6.60524 10.1357 6.71926 10.0101 6.85832 9.91737Z" fill="white"/>
<path d="M15.134 21.3541L14.5699 21.4302L10.8608 19.8102C10.3646 19.5933 9.94927 19.2258 9.67358 18.7596L9.6319 18.6888L9.84373 17.9071L15.134 21.3541Z" fill="#E6AF89"/>
<path d="M12.6826 17.7608C12.6826 16.8486 12.4413 15.9526 11.9832 15.1637L11.9063 15.0312L12.24 13.7745L11.6471 13.7198C11.2822 13.7198 10.9297 13.852 10.6549 14.0919C10.3554 14.3533 10.1712 14.7224 10.1423 15.1189L10.0672 16.6884L11.0929 17.9072L12.6826 17.7608Z" fill="#A6A6A6"/>
<path d="M18.6286 15.5458L17.2961 19.5512L12.6823 17.7607L12.3256 17.3196C12.282 17.2655 12.2278 17.2209 12.1665 17.1883C12.1051 17.1557 12.0378 17.1358 11.9686 17.1299C11.8994 17.1239 11.8297 17.132 11.7637 17.1537C11.6976 17.1754 11.6367 17.2102 11.5845 17.256L11.401 17.417L10.7922 16.8385C10.5928 16.6491 10.3305 16.5399 10.0556 16.5319C9.78065 16.5238 9.51242 16.6174 9.30223 16.7948L9.25686 16.8332C9.20517 16.8768 9.1706 16.9373 9.1593 17.004C9.14799 17.0707 9.16068 17.1393 9.19511 17.1975L10.0165 18.5868C10.2921 19.0529 10.7075 19.4204 11.2037 19.6372L16.7064 22.0411C16.9895 22.1648 17.2951 22.2287 17.604 22.2288C18.0809 22.229 18.5454 22.0773 18.9303 21.7957C19.3151 21.5142 19.6003 21.1173 19.7445 20.6628L21.3584 15.5744L18.6286 15.5458Z" fill="#E1E1E1"/>
<path d="M16.853 9.97376C16.7943 9.72782 16.7857 9.47259 16.8276 9.22323L16.9524 8.47944C15.5722 8.47944 14.2352 7.9988 13.1709 7.12008L12.7356 6.76069L12.5251 7.24508C12.3629 7.618 12.3051 8.02796 12.3578 8.43118C12.4104 8.83441 12.5716 9.21577 12.8241 9.53454L13.0838 9.86247C13.4245 10.2926 13.9058 10.5891 14.4432 10.6999C15.0219 10.8192 15.6243 10.7148 16.1291 10.4077L16.6855 10.0694L16.853 9.97376Z" fill="#E1E1E1"/>
</g>
<defs>
<clipPath id="clip0_1_177">
<rect width="30" height="30" fill="white"/>
</clipPath>
</defs>
</svg>
