<svg width="30" height="30" viewBox="0 0 30 30" fill="none" xmlns="http://www.w3.org/2000/svg">
<g clip-path="url(#clip0_1_163)">
<path d="M15 30C23.2843 30 30 23.2843 30 15C30 6.71573 23.2843 0 15 0C6.71573 0 0 6.71573 0 15C0 23.2843 6.71573 30 15 30Z" fill="#FFA400"/>
<path d="M13.5 26.5L18.8799 29.4794C25.2679 27.776 29.9998 21.9558 29.9998 14.9999C29.9998 14.858 29.9998 14.716 29.9998 14.5741L15.5 3.5L13.5 26.5Z" fill="#AD750F"/>
<g clip-path="url(#clip1_1_163)">
<path d="M24.6104 17.6014C24.6104 22.7921 20.3989 27 15.2037 27C10.0085 27 5.79688 22.7921 5.79688 17.6014C5.79688 13.013 13.1471 4.95885 14.853 3.15135C15.0435 2.94955 15.3639 2.94955 15.5543 3.15135C17.2602 4.95889 24.6104 13.013 24.6104 17.6014Z" fill="white"/>
<path d="M15.5543 3.15135C15.3638 2.94955 15.0434 2.94955 14.853 3.15135C14.7487 3.26193 14.6229 3.39618 14.4793 3.55124C16.6835 5.9315 23.1617 13.2936 23.1617 17.6013C23.1617 22.5486 19.3361 26.603 14.4793 26.9725C14.7184 26.9907 14.9599 27 15.2037 27C20.3989 27 24.6104 22.7921 24.6104 17.6013C24.6104 13.013 17.2602 4.95889 15.5543 3.15135Z" fill="#9B9B9B"/>
<path d="M24.586 18.2824C21.9643 17.1717 19.1232 17.3886 11.7884 18.9223C10.1369 19.2676 8.24736 19.6819 6.1543 20.1751C7.27447 24.1146 10.9019 27 15.204 27C20.1699 27 24.2367 23.1551 24.586 18.2824Z" fill="#C6C6C6"/>
<path d="M24.5854 18.2779C24.1379 18.0884 23.6419 17.9388 23.1587 17.8289C23.1378 18.7445 22.9964 19.6072 22.7246 20.4371L23.8861 21.2223C24.0709 20.7897 24.2403 20.2596 24.3808 19.6417C24.495 19.1396 24.5555 18.6792 24.5854 18.2779Z" fill="#9C9C9C"/>
<path d="M18.7158 19.6516C13.7977 18.8416 11.2334 15.6956 6.03017 16.0357C5.88031 16.5887 5.79688 17.1147 5.79688 17.6014C5.79688 22.7921 10.0084 27 15.2037 27C19.7683 27 23.5731 23.7514 24.4296 19.442C22.1022 19.9617 20.1981 19.8957 18.7158 19.6516Z" fill="#F2F2F2"/>
<path d="M22.9231 19.7081C22.0177 23.6576 18.6226 26.6581 14.4756 26.9722C14.7158 26.9906 14.9584 27 15.2033 27C19.768 27 23.5728 23.7513 24.4293 19.4419C23.9058 19.5588 23.4038 19.6458 22.9231 19.7081Z" fill="#ADADAD"/>
</g>
</g>
<defs>
<clipPath id="clip0_1_163">
<rect width="30" height="30" fill="white"/>
</clipPath>
<clipPath id="clip1_1_163">
<rect width="24" height="24" fill="white" transform="translate(4 3)"/>
</clipPath>
</defs>
</svg>
